<svg width="24" height="24" viewBox="0 0 24 24" fill="none" xmlns="http://www.w3.org/2000/svg">
    <path fill-rule="evenodd" clip-rule="evenodd" d="M10.9744 6.25443C11.5604 6.90396 11.3746 7.63981 10.8565 8.33802C10.7337 8.50356 10.5921 8.66666 10.4211 8.84639C10.339 8.93266 10.275 8.99754 10.1411 9.13155L9.37435 9.89874C9.2739 9.99918 9.95972 11.3697 11.2907 12.702C12.621 14.0335 13.9914 14.7198 14.0923 14.6188L14.8585 13.8522C15.2805 13.4298 15.504 13.226 15.811 13.0246C16.4494 12.6058 17.1457 12.492 17.7329 13.0171C19.6503 14.3886 20.7354 15.2302 21.2669 15.7825C22.3037 16.8598 22.1678 18.5181 21.2728 19.4641C20.9624 19.7921 20.5689 20.1859 20.1041 20.634C17.2926 23.4471 11.3589 21.7351 6.81139 17.1831C2.26285 12.6301 0.551816 6.69589 3.35747 3.88873C3.86116 3.37712 4.02723 3.21113 4.51779 2.72777C5.43112 1.82784 7.16589 1.68693 8.22044 2.72866C8.77515 3.27662 9.65949 4.41445 10.9744 6.25443ZM16.2721 15.2662L15.5057 16.0331C14.203 17.3365 11.9845 16.2254 9.87697 14.1159C7.76802 12.0048 6.65821 9.78712 7.96136 8.48408L8.72738 7.71764C8.84996 7.59494 8.90603 7.5381 8.97333 7.46737C9.06503 7.37099 9.14038 7.28635 9.20071 7.21145C8.03534 5.58811 7.24314 4.57376 6.81608 4.15189C6.59552 3.93401 6.10166 3.97413 5.92035 4.15278C5.4368 4.62924 5.27786 4.7881 4.7762 5.29761C2.97188 7.10291 4.35315 11.8934 8.22513 15.7692C12.0959 19.6438 16.8857 21.0257 18.7037 19.2069C19.1613 18.7656 19.5342 18.3925 19.8212 18.0892C20.0286 17.87 20.0656 17.4177 19.8271 17.1698C19.4297 16.757 18.457 15.9985 16.7773 14.7923C16.6549 14.8909 16.5044 15.0338 16.2721 15.2662ZM14.707 10.7072L19.9999 5.41426V9.00005H21.9999V2.00005H14.9999V4.00005H18.5857L13.2928 9.29294L14.707 10.7072Z" fill="#17161D"/>
</svg>
