<svg width="24" height="24" viewBox="0 0 24 24" fill="none" xmlns="http://www.w3.org/2000/svg">
    <path d="M12 23.5C5.64873 23.5 0.5 18.3513 0.5 12C0.5 5.64873 5.64873 0.5 12 0.5C18.3513 0.5 23.5 5.64873 23.5 12C23.5 18.3513 18.3513 23.5 12 23.5Z" fill="#21C17A"/>
    <path fill-rule="evenodd" clip-rule="evenodd" d="M9.91992 16.9355C9.89062 16.9355 9.86621 16.9307 9.84668 16.9209C9.65137 16.9014 9.50488 16.8037 9.40723 16.6279L5.07813 12.5557C5 12.4092 4.98047 12.2578 5.01953 12.1016C5.05859 11.9453 5.14893 11.8281 5.29053 11.75C5.43213 11.6719 5.58105 11.6548 5.7373 11.6987C5.89356 11.7427 6.01562 11.833 6.10352 11.9697L10.0518 15.3828L17.2441 8.17578C17.3516 8.05859 17.4883 8 17.6543 8C17.8203 8 17.9595 8.05615 18.0718 8.16846C18.1841 8.28076 18.2402 8.41992 18.2402 8.58594C18.2402 8.75195 18.1816 8.88867 18.0645 8.99609L10.3594 16.7305L10.3301 16.7598C10.2227 16.877 10.0859 16.9355 9.91992 16.9355Z" fill="white"/>
</svg>
