<svg width="24" height="24" viewBox="0 0 24 24" fill="none" xmlns="http://www.w3.org/2000/svg">
    <path fill-rule="evenodd" clip-rule="evenodd" d="M18.4989 11.2851H20V12.7149H18.4989C18.3397 14.2355 17.72 15.5347 16.6397 16.6128C15.5593 17.6908 14.2573 18.3206 12.7335 18.5021V20H11.2665V18.5021C9.76545 18.3206 8.46909 17.6908 7.3774 16.6128C6.28571 15.5347 5.66027 14.2355 5.50107 12.7149H4V11.2851H5.50107C5.66027 9.76453 6.28571 8.46525 7.3774 7.38723C8.46909 6.30921 9.76545 5.67943 11.2665 5.49787V4H12.7335V5.49787C14.2573 5.67943 15.5593 6.30921 16.6397 7.38723C17.72 8.46525 18.3397 9.76453 18.4989 11.2851ZM9.93603 9.95745C10.5046 9.39007 11.1926 9.10638 12 9.10638C12.8074 9.10638 13.4954 9.39007 14.064 9.95745C14.6326 10.5248 14.9168 11.2057 14.9168 12C14.9168 12.7943 14.6326 13.4752 14.064 14.0426C13.4954 14.6099 12.8074 14.8936 12 14.8936C11.1926 14.8936 10.5046 14.6099 9.93603 14.0426C9.36745 13.4752 9.08316 12.7943 9.08316 12C9.08316 11.2057 9.36745 10.5248 9.93603 9.95745ZM12.0171 17.0723C10.607 17.0723 9.40157 16.5844 8.40085 15.6085C7.40014 14.6099 6.89979 13.4071 6.89979 12C6.89979 10.5929 7.40014 9.39575 8.40085 8.40851C9.40157 7.42127 10.607 6.92766 12.0171 6.92766C13.4272 6.92766 14.6269 7.42127 15.6162 8.40851C16.6055 9.39575 17.1002 10.5929 17.1002 12C17.1002 13.4071 16.6055 14.6042 15.6162 15.5915C14.6269 16.5787 13.4272 17.0723 12.0171 17.0723Z" fill="#17161D"/>
    <mask id="mask0_1110_9028" style="mask-type:alpha" maskUnits="userSpaceOnUse" x="4" y="4" width="16" height="16">
        <path fill-rule="evenodd" clip-rule="evenodd" d="M18.4989 11.2851H20V12.7149H18.4989C18.3397 14.2355 17.72 15.5347 16.6397 16.6128C15.5593 17.6908 14.2573 18.3206 12.7335 18.5021V20H11.2665V18.5021C9.76545 18.3206 8.46909 17.6908 7.3774 16.6128C6.28571 15.5347 5.66027 14.2355 5.50107 12.7149H4V11.2851H5.50107C5.66027 9.76453 6.28571 8.46525 7.3774 7.38723C8.46909 6.30921 9.76545 5.67943 11.2665 5.49787V4H12.7335V5.49787C14.2573 5.67943 15.5593 6.30921 16.6397 7.38723C17.72 8.46525 18.3397 9.76453 18.4989 11.2851ZM9.93603 9.95745C10.5046 9.39007 11.1926 9.10638 12 9.10638C12.8074 9.10638 13.4954 9.39007 14.064 9.95745C14.6326 10.5248 14.9168 11.2057 14.9168 12C14.9168 12.7943 14.6326 13.4752 14.064 14.0426C13.4954 14.6099 12.8074 14.8936 12 14.8936C11.1926 14.8936 10.5046 14.6099 9.93603 14.0426C9.36745 13.4752 9.08316 12.7943 9.08316 12C9.08316 11.2057 9.36745 10.5248 9.93603 9.95745ZM12.0171 17.0723C10.607 17.0723 9.40157 16.5844 8.40085 15.6085C7.40014 14.6099 6.89979 13.4071 6.89979 12C6.89979 10.5929 7.40014 9.39575 8.40085 8.40851C9.40157 7.42127 10.607 6.92766 12.0171 6.92766C13.4272 6.92766 14.6269 7.42127 15.6162 8.40851C16.6055 9.39575 17.1002 10.5929 17.1002 12C17.1002 13.4071 16.6055 14.6042 15.6162 15.5915C14.6269 16.5787 13.4272 17.0723 12.0171 17.0723Z" fill="white"/>
    </mask>
    <g mask="url(#mask0_1110_9028)">
        <rect width="24" height="24" fill="#17161D"/>
    </g>
</svg>
