<svg width="40" height="41" viewBox="0 0 40 41" fill="none" xmlns="http://www.w3.org/2000/svg">
    <rect y="0.0854492" width="40" height="40" rx="20" fill="white"/>
    <path d="M29.5597 14.9403C29.6997 14.4753 29.5597 14.1343 28.8977 14.1343H26.7047C26.1467 14.1343 25.8917 14.4293 25.7517 14.7533C25.7517 14.7533 24.6367 17.4723 23.0567 19.2353C22.5467 19.7483 22.3137 19.9103 22.0357 19.9103C21.8967 19.9103 21.6947 19.7483 21.6947 19.2833V14.9403C21.6947 14.3823 21.5337 14.1343 21.0687 14.1343H17.6227C17.2747 14.1343 17.0647 14.3923 17.0647 14.6383C17.0647 15.1663 17.8547 15.2883 17.9357 16.7763V20.0043C17.9357 20.7113 17.8087 20.8403 17.5287 20.8403C16.7857 20.8403 14.9777 18.1113 13.9047 14.9873C13.6957 14.3803 13.4847 14.1353 12.9247 14.1353H10.7327C10.1057 14.1353 9.98071 14.4303 9.98071 14.7543C9.98071 15.3363 10.7237 18.2163 13.4417 22.0253C15.2537 24.6263 17.8047 26.0363 20.1287 26.0363C21.5217 26.0363 21.6937 25.7233 21.6937 25.1833V23.2173C21.6937 22.5913 21.8267 22.4653 22.2677 22.4653C22.5917 22.4653 23.1497 22.6293 24.4507 23.8823C25.9367 25.3683 26.1827 26.0353 27.0177 26.0353H29.2097C29.8357 26.0353 30.1487 25.7223 29.9687 25.1043C29.7717 24.4893 29.0617 23.5943 28.1197 22.5353C27.6077 21.9313 26.8427 21.2813 26.6097 20.9563C26.2847 20.5373 26.3787 20.3523 26.6097 19.9803C26.6107 19.9813 29.2817 16.2193 29.5597 14.9403V14.9403Z" fill="black"/>
</svg>
