<svg width="50" height="50" viewBox="0 0 50 50" fill="none" xmlns="http://www.w3.org/2000/svg">
    <circle cx="23.5712" cy="24.9999" r="15.7143" fill="white"/>
    <path d="M4.17487 45.8332L6.99153 35.4832C5.13557 32.3016 4.16048 28.6832 4.16653 24.9998C4.16653 13.4936 13.4936 4.1665 24.9999 4.1665C36.5061 4.1665 45.8332 13.4936 45.8332 24.9998C45.8332 36.5061 36.5061 45.8332 24.9999 45.8332C21.3182 45.8391 17.7012 44.8648 14.5207 43.0103L4.17487 45.8332ZM17.4811 15.2248C17.2121 15.2415 16.9492 15.3124 16.7082 15.4332C16.4822 15.5611 16.2759 15.7211 16.0957 15.9082C15.8457 16.1436 15.704 16.3478 15.5519 16.5457C14.782 17.5477 14.3678 18.7778 14.3749 20.0415C14.379 21.0623 14.6457 22.0561 15.0624 22.9853C15.9144 24.8644 17.3165 26.854 19.1686 28.6978C19.6144 29.1415 20.0499 29.5873 20.5186 30.0019C22.8173 32.0258 25.5566 33.4853 28.5186 34.2644L29.704 34.4457C30.0894 34.4665 30.4749 34.4373 30.8624 34.4186C31.4691 34.3873 32.0616 34.223 32.5978 33.9373C32.8706 33.7968 33.1369 33.6439 33.3957 33.479C33.3957 33.479 33.4853 33.4207 33.6561 33.2915C33.9374 33.0832 34.1103 32.9353 34.3436 32.6915C34.5165 32.5123 34.6665 32.3019 34.7811 32.0623C34.9436 31.7228 35.1061 31.0748 35.1728 30.5353C35.2228 30.1228 35.2082 29.8978 35.2019 29.7582C35.1936 29.5353 35.0082 29.304 34.8061 29.2061L33.5936 28.6623C33.5936 28.6623 31.7811 27.8728 30.6749 27.3686C30.5582 27.3177 30.4332 27.2888 30.3061 27.2832C30.1636 27.2685 30.0195 27.2846 29.8837 27.3302C29.7479 27.3758 29.6234 27.45 29.5186 27.5478V27.5436C29.5082 27.5436 29.3686 27.6623 27.8624 29.4873C27.7759 29.6035 27.6568 29.6913 27.5203 29.7395C27.3837 29.7878 27.2359 29.7943 27.0957 29.7582C26.96 29.7219 26.827 29.6759 26.6978 29.6207C26.4394 29.5123 26.3499 29.4707 26.1728 29.3936L26.1624 29.3894C24.9705 28.8691 23.867 28.1662 22.8915 27.3061C22.629 27.0769 22.3853 26.8269 22.1353 26.5853C21.3157 25.8003 20.6014 24.9124 20.0103 23.9436L19.8874 23.7457C19.7991 23.6127 19.7277 23.4692 19.6749 23.3186C19.5957 23.0123 19.8019 22.7665 19.8019 22.7665C19.8019 22.7665 20.3082 22.2123 20.5436 21.9123C20.7396 21.663 20.9225 21.4036 21.0915 21.1353C21.3374 20.7394 21.4144 20.3332 21.2853 20.0186C20.7019 18.5936 20.0978 17.1748 19.4769 15.7665C19.354 15.4873 18.9894 15.2873 18.6582 15.2478C18.5457 15.2353 18.4332 15.2228 18.3207 15.2144C18.0409 15.2005 17.7606 15.2033 17.4811 15.2228V15.2248Z" fill="#47C756"/>
</svg>
